<svg width="26" height="26" viewBox="0 0 26 26" fill="none" xmlns="http://www.w3.org/2000/svg">
<circle cx="12.872" cy="12.872" r="12.372" stroke="#D4D4D8"/>
<path d="M18.579 10.0983C18.1938 10.2695 17.7871 10.3765 17.359 10.4407C17.7871 10.1839 18.1295 9.77723 18.2794 9.28496C17.8727 9.52039 17.4232 9.69162 16.931 9.79863C16.5457 9.39197 15.9892 9.13513 15.3899 9.13513C14.2341 9.13513 13.2924 10.0769 13.2924 11.2327C13.2924 11.4039 13.3138 11.5537 13.3566 11.7035C11.6229 11.6179 10.0605 10.7832 9.01173 9.49899C8.8405 9.82004 8.73349 10.1625 8.73349 10.5478C8.73349 11.2755 9.09734 11.9176 9.67523 12.3028C9.33278 12.2814 9.01173 12.1958 8.71208 12.046V12.0674C8.71208 13.0947 9.4398 13.9509 10.4029 14.1435C10.2317 14.1863 10.0391 14.2077 9.84646 14.2077C9.71804 14.2077 9.56822 14.1863 9.4398 14.1649C9.71804 14.9996 10.4886 15.6203 11.4089 15.6203C10.6812 16.1768 9.78225 16.5193 8.7977 16.5193C8.62647 16.5193 8.45524 16.5193 8.30542 16.4979C9.24717 17.0972 10.3387 17.4396 11.5373 17.4396C15.4113 17.4396 17.5302 14.2291 17.5302 11.4467C17.5302 11.3611 17.5302 11.2541 17.5302 11.1684C17.9369 10.8902 18.3008 10.5263 18.579 10.0983Z" fill="#12141D"/>
</svg>
