<svg width="27" height="26" viewBox="0 0 27 26" fill="none" xmlns="http://www.w3.org/2000/svg">
<circle cx="13.4262" cy="12.872" r="12.372" stroke="#D4D4D8"/>
<path d="M13.4269 7.76664C15.0898 7.76664 15.2868 7.77287 15.9437 7.80282C16.3387 7.80766 16.7299 7.88019 17.1004 8.01726C17.3691 8.12087 17.6131 8.27959 17.8167 8.4832C18.0203 8.68681 18.179 8.9308 18.2826 9.19946C18.4197 9.56993 18.4922 9.96117 18.497 10.3562C18.5267 11.0131 18.5332 11.21 18.5332 12.873C18.5332 14.536 18.527 14.7329 18.497 15.3899C18.4922 15.7848 18.4197 16.1761 18.2826 16.5466C18.179 16.8152 18.0203 17.0592 17.8167 17.2628C17.6131 17.4664 17.3691 17.6251 17.1004 17.7288C16.7299 17.8658 16.3387 17.9384 15.9437 17.9432C15.2871 17.9729 15.0901 17.9794 13.4269 17.9794C11.7636 17.9794 11.5666 17.9732 10.91 17.9432C10.515 17.9384 10.1238 17.8658 9.7533 17.7288C9.48464 17.6251 9.24065 17.4664 9.03704 17.2628C8.83343 17.0592 8.67471 16.8152 8.5711 16.5466C8.43403 16.1761 8.3615 15.7848 8.35667 15.3899C8.32701 14.7329 8.32048 14.536 8.32048 12.873C8.32048 11.21 8.32671 11.0131 8.35667 10.3562C8.3615 9.96117 8.43403 9.56993 8.5711 9.19946C8.67471 8.9308 8.83343 8.68681 9.03704 8.4832C9.24065 8.27959 9.48464 8.12087 9.7533 8.01726C10.1238 7.88019 10.515 7.80766 10.91 7.80282C11.5669 7.77317 11.7639 7.76664 13.4269 7.76664ZM13.4269 6.64435C11.7363 6.64435 11.5233 6.65147 10.859 6.68172C10.342 6.692 9.83059 6.78988 9.34638 6.97119C8.93101 7.12769 8.55478 7.37294 8.24396 7.68982C7.92679 8.00076 7.68133 8.3772 7.52473 8.79284C7.34342 9.27705 7.24555 9.7885 7.23526 10.3054C7.2056 10.9692 7.19849 11.1822 7.19849 12.8727C7.19849 14.5633 7.2056 14.7762 7.23586 15.4406C7.24614 15.9575 7.34402 16.469 7.52533 16.9532C7.68175 17.3688 7.927 17.7452 8.24396 18.0562C8.55496 18.3732 8.93139 18.6184 9.34698 18.7748C9.83119 18.9561 10.3426 19.054 10.8596 19.0643C11.5239 19.094 11.736 19.1017 13.4274 19.1017C15.1189 19.1017 15.331 19.0946 15.9953 19.0643C16.5123 19.054 17.0237 18.9561 17.5079 18.7748C17.9215 18.6145 18.2971 18.3696 18.6107 18.0558C18.9243 17.7421 19.1689 17.3663 19.329 16.9526C19.5103 16.4684 19.6082 15.9569 19.6184 15.44C19.6481 14.7762 19.6552 14.5633 19.6552 12.8727C19.6552 11.1822 19.6481 10.9692 19.6178 10.3048C19.6076 9.78791 19.5097 9.27645 19.3284 8.79224C19.172 8.37666 18.9267 8.00022 18.6097 7.68923C18.2987 7.37227 17.9223 7.12702 17.5067 6.9706C17.0225 6.78929 16.5111 6.69141 15.9941 6.68113C15.3304 6.65147 15.1174 6.64435 13.4269 6.64435Z" fill="#12141D"/>
<path d="M13.4279 9.67535C12.7953 9.67535 12.1769 9.86294 11.651 10.2144C11.125 10.5658 10.715 11.0654 10.473 11.6498C10.2309 12.2342 10.1675 12.8773 10.291 13.4977C10.4144 14.1182 10.719 14.6881 11.1663 15.1354C11.6136 15.5827 12.1835 15.8873 12.8039 16.0107C13.4244 16.1341 14.0675 16.0708 14.6519 15.8287C15.2363 15.5866 15.7358 15.1767 16.0873 14.6507C16.4387 14.1247 16.6263 13.5064 16.6263 12.8738C16.6263 12.0255 16.2893 11.212 15.6895 10.6121C15.0897 10.0123 14.2762 9.67535 13.4279 9.67535ZM13.4279 14.9499C13.0173 14.9499 12.6159 14.8281 12.2745 14.6C11.9331 14.3719 11.667 14.0476 11.5098 13.6683C11.3527 13.2889 11.3116 12.8715 11.3917 12.4687C11.4718 12.066 11.6695 11.6961 11.9599 11.4057C12.2502 11.1154 12.6201 10.9176 13.0229 10.8375C13.4256 10.7574 13.843 10.7985 14.2224 10.9557C14.6018 11.1128 14.926 11.3789 15.1541 11.7203C15.3823 12.0618 15.504 12.4631 15.504 12.8738C15.504 13.4244 15.2853 13.9525 14.8959 14.3418C14.5066 14.7312 13.9785 14.9499 13.4279 14.9499Z" fill="#12141D"/>
<path d="M16.7523 10.2958C17.1651 10.2958 17.4997 9.96121 17.4997 9.54843C17.4997 9.13565 17.1651 8.80103 16.7523 8.80103C16.3395 8.80103 16.0049 9.13565 16.0049 9.54843C16.0049 9.96121 16.3395 10.2958 16.7523 10.2958Z" fill="#12141D"/>
</svg>
