<svg width="27" height="26" viewBox="0 0 27 26" fill="none" xmlns="http://www.w3.org/2000/svg">
<circle cx="13.2028" cy="12.8721" r="12.372" stroke="#D4D4D8"/>
<path fill-rule="evenodd" clip-rule="evenodd" d="M13.7608 6.64435C10.4592 6.64435 7.80298 9.30053 7.80298 12.6021C7.80298 15.2335 9.51584 17.4677 11.8741 18.262C12.172 18.3117 12.2713 18.1379 12.2713 17.9641C12.2713 17.8152 12.2713 17.4428 12.2713 16.9463C10.6081 17.3187 10.2606 16.152 10.2606 16.152C9.9875 15.4569 9.59031 15.2831 9.59031 15.2831C9.04418 14.9108 9.63996 14.9108 9.63996 14.9108C10.2357 14.9604 10.5585 15.5314 10.5585 15.5314C11.0798 16.4499 11.9486 16.1768 12.2961 16.0279C12.3458 15.6307 12.4947 15.3824 12.6685 15.2335C11.3528 15.0845 9.96267 14.5632 9.96267 12.2794C9.96267 11.634 10.1861 11.0879 10.5833 10.6907C10.5336 10.5417 10.3102 9.94595 10.6329 9.10193C10.6329 9.10193 11.1294 8.95299 12.2713 9.72253C12.743 9.59841 13.2643 9.52394 13.7608 9.52394C14.2572 9.52394 14.7785 9.59841 15.2502 9.72253C16.3921 8.95299 16.8886 9.10193 16.8886 9.10193C17.2113 9.92113 17.0127 10.5169 16.9382 10.6907C17.3106 11.1127 17.5588 11.634 17.5588 12.2794C17.5588 14.5632 16.1687 15.0597 14.8282 15.2087C15.0516 15.3824 15.2254 15.7548 15.2254 16.3009C15.2254 17.0953 15.2254 17.7407 15.2254 17.9393C15.2254 18.0883 15.3247 18.2868 15.6474 18.2372C18.0057 17.4677 19.7185 15.2335 19.7185 12.6021C19.7185 9.30053 17.0624 6.64435 13.7608 6.64435Z" fill="#12141D"/>
</svg>
